<svg xmlns="http://www.w3.org/2000/svg" width="23.774" height="22.784" viewBox="0 0 23.774 22.784"><defs><style>.a{stroke:#000;}</style></defs><g transform="translate(0.5 0.5)"><g transform="translate(3.763 4.852)"><path class="a" d="M18.955,16.792H8.657a2.021,2.021,0,0,1-1.98-1.485L4.3,6.494c0-.2,0-.3.1-.4a.514.514,0,0,1,.4-.2H22.817a.514.514,0,0,1,.4.2.6.6,0,0,1,.1.4l-2.376,8.813A2.249,2.249,0,0,1,18.955,16.792Zm-13.566-10,2.178,8.12a1.073,1.073,0,0,0,1.089.792h10.3a1.158,1.158,0,0,0,1.089-.792l2.178-8.12Z" transform="translate(-4.3 -5.9)"/></g><g transform="translate(0 0)"><path class="a" d="M3.867,4.862,3.074,1.99H.5V1H3.471a.505.505,0,0,1,.5.4l.891,3.169Z" transform="translate(-0.5 -1)"/></g><g transform="translate(5.743 17.031)"><path class="a" d="M8.676,22.953a2.376,2.376,0,1,1,2.376-2.376A2.41,2.41,0,0,1,8.676,22.953Zm0-3.763a1.386,1.386,0,1,0,1.386,1.386A1.416,1.416,0,0,0,8.676,19.19Z" transform="translate(-6.3 -18.2)"/></g><g transform="translate(16.041 17.031)"><path class="a" d="M19.076,22.953a2.376,2.376,0,1,1,2.376-2.376A2.41,2.41,0,0,1,19.076,22.953Zm0-3.763a1.386,1.386,0,1,0,1.386,1.386A1.491,1.491,0,0,0,19.076,19.19Z" transform="translate(-16.7 -18.2)"/></g></g></svg>